<svg xmlns="http://www.w3.org/2000/svg" viewBox="0 0 512 512">
  <defs>
    <linearGradient id="bg" x1="0%" y1="0%" x2="100%" y2="100%">
      <stop offset="0%" style="stop-color:#6c5ce7"/>
      <stop offset="100%" style="stop-color:#5a4bd1"/>
    </linearGradient>
    <linearGradient id="page" x1="0%" y1="0%" x2="100%" y2="100%">
      <stop offset="0%" style="stop-color:#ffffff"/>
      <stop offset="100%" style="stop-color:#f0f0f5"/>
    </linearGradient>
  </defs>
  <!-- Background rounded square -->
  <rect width="512" height="512" rx="108" fill="url(#bg)"/>
  <!-- Page shadow -->
  <rect x="128" y="82" width="272" height="348" rx="20" fill="rgba(0,0,0,0.15)"/>
  <!-- Main page -->
  <rect x="120" y="74" width="272" height="348" rx="20" fill="url(#page)"/>
  <!-- Text lines -->
  <rect x="160" y="134" width="160" height="12" rx="6" fill="#6c5ce7" opacity="0.8"/>
  <rect x="160" y="166" width="192" height="8" rx="4" fill="#b8b0e8" opacity="0.6"/>
  <rect x="160" y="190" width="172" height="8" rx="4" fill="#b8b0e8" opacity="0.6"/>
  <rect x="160" y="214" width="184" height="8" rx="4" fill="#b8b0e8" opacity="0.6"/>
  <rect x="160" y="248" width="120" height="12" rx="6" fill="#6c5ce7" opacity="0.7"/>
  <rect x="160" y="280" width="192" height="8" rx="4" fill="#b8b0e8" opacity="0.5"/>
  <rect x="160" y="304" width="152" height="8" rx="4" fill="#b8b0e8" opacity="0.5"/>
  <rect x="160" y="328" width="176" height="8" rx="4" fill="#b8b0e8" opacity="0.5"/>
  <!-- Pen -->
  <g transform="translate(310, 290) rotate(45)">
    <rect x="-10" y="-90" width="20" height="120" rx="3" fill="#ffd93d"/>
    <polygon points="-10,30 10,30 0,50" fill="#4a4a4a"/>
    <rect x="-10" y="-90" width="20" height="16" rx="3" fill="#e74c3c"/>
    <rect x="-8" y="-2" width="16" height="8" fill="#f0c419"/>
  </g>
</svg>
